<?xml version="1.0" encoding="utf-8"?>
<!-- Generator: Adobe Illustrator 22.0.1, SVG Export Plug-In . SVG Version: 6.00 Build 0)  -->
<svg version="1.1" id="Layer_1" xmlns="http://www.w3.org/2000/svg" xmlns:xlink="http://www.w3.org/1999/xlink" x="0px" y="0px"
	 viewBox="0 0 70 80" style="enable-background:new 0 0 70 80;" xml:space="preserve">
<style type="text/css">
	.st0{fill:#CC9999;}
	.st1{fill:#5E0231;}
</style>
<path class="st0" d="M44.5,41.8c0-6.9-7.3-12.6-16.4-12.6c-1.3,0-2.6,0.1-3.8,0.4c1.5-3.7,6-6.4,11.3-6.4h5.8
	c6.5,0,11.9,4.1,11.9,9.1v13c0,3,0.1,7.2,4.4,9.1c0,0-8,0-10.6,0h-3.3c-2.2,0-5,0-5,0C43,51.7,44.5,47.6,44.5,41.8z"/>
<path class="st1" d="M29.4,38.8c0-8.7,2.3-13.6,7.5-14.7c1.1-0.2,6-0.9,7.1-0.7c-1.3-4.6-4.9-5.6-9.5-5.6h-5.1
	c-5.7,0-10.8,2.7-10.8,9V43c0,3.7-0.1,8.9-3.8,11.4c0,0,7,0,9.3,0H27c1.9,0,6.9,0,6.9,0C30.1,51.1,29.4,46.1,29.4,38.8z"/>
</svg>
